<!DOCTYPE svg PUBLIC "-//W3C//DTD SVG 20010904//EN" "http://www.w3.org/TR/2001/REC-SVG-20010904/DTD/svg10.dtd">
<svg version="1.0" xmlns="http://www.w3.org/2000/svg" width="76px" height="76px" viewBox="0 0 760 760" preserveAspectRatio="xMidYMid meet">
<g id="layer101" fill="#35c19b" stroke="none">
 <path d="M192 577 c-100 -100 -182 -187 -182 -192 0 -13 362 -375 375 -375 13 0 375 362 375 375 0 13 -362 375 -375 375 -6 0 -92 -82 -193 -183z m346 -344 l-153 -153 -152 152 -153 153 152 152 153 153 152 -152 153 -153 -152 -152z"/>
 <path d="M433 553 c-18 -7 -16 -43 1 -43 8 0 17 6 20 13 3 8 10 6 21 -8 21 -25 15 -64 -18 -133 l-25 -52 35 0 c28 0 33 3 25 13 -8 9 -6 24 7 52 l17 40 11 -43 c9 -36 9 -44 -6 -52 -12 -7 -8 -9 21 -10 l36 0 -19 38 c-11 20 -29 63 -40 96 -20 55 -49 97 -66 95 -5 0 -14 -3 -20 -6z"/>
 <path d="M244 454 c22 -21 22 -141 0 -172 l-15 -22 75 0 c70 0 77 2 92 26 16 24 16 26 -4 54 -12 16 -18 31 -13 35 5 3 12 19 16 35 4 17 16 37 28 46 21 15 21 15 -17 12 -36 -3 -41 -6 -49 -38 -11 -44 -24 -60 -48 -60 -26 0 -27 74 -1 89 13 8 6 10 -31 11 -44 0 -47 -1 -33 -16z m110 -120 c9 -8 16 -19 16 -24 0 -17 -32 -40 -56 -40 -21 0 -24 4 -24 40 0 36 3 40 24 40 14 0 32 -7 40 -16z"/>
 </g>
</svg>